# xmcd
#
# Track frame offsets:
#	150
#	19547
#	33122
#	48212
#	64407
#	80452
#	95442
#	114472
#	132050
#	147637
#	164225
#	181997
#	195355
#	211772
#
# Disc length: 3103 seconds
#
# Revision: 1
# Processed by: cddbd v1.5.2PL0 Copyright (c) Steve Scherf et al.
# Submitted via: audiograbber 1.83.01
#
DISCID=bb0c1d0e
DTITLE=Various Artist - SD066
DYEAR=1900
DGENRE=Country
TTITLE0=Clint Black - When I Say I Do
TTITLE1=Shania Twain - Come On Over
TTITLE2=SheDaisy - This Woman Needs
TTITLE3=Lonestar - Smile
TTITLE4=Clay Walker - Live, Laugh, Love
TTITLE5=LeAnn Rimes - Big Deal
TTITLE6=Gary Allan - Smoke Rings In The Dark
TTITLE7=Chely Wright - It Was
TTITLE8=Joe Diffie - The Quittin' Kind
TTITLE9=Ty Herndon - Steam
TTITLE10=Pam Tillis - After A Kiss
TTITLE11=Micheal Peterson - Sure Feels Real Good
TTITLE12=Randy Travis - A Man Sure Ain't Made Of Stone
TTITLE13=Garth Brooks - It Don't Matter To The Sun
EXTD=
EXTT0=
EXTT1=
EXTT2=
EXTT3=
EXTT4=
EXTT5=
EXTT6=
EXTT7=
EXTT8=
EXTT9=
EXTT10=
EXTT11=
EXTT12=
EXTT13=
PLAYORDER=
